<svg id="Capa_1" enable-background="new 0 0 511.981 511.981" height="512" viewBox="0 0 511.981 511.981" width="512" xmlns="http://www.w3.org/2000/svg"><g><path d="m357.8 378.367-32.582-126.132c-.19-.083-.377-.168-.571-.249-21.274-8.803-22.295-49.621-10.625-63.349 2.403-2.827 3.897-6.329 3.892-10.04-.008-6.506 2.516-14.412 7.304-22.162l23.941-52.954-23.941-26.609c-1.72.385-3.387.713-4.982.965-23.887 3.768-50.245-40.834-51.069-50.718s-50.245-38.713-29.653 0-14.826 50.245-25.534 66.4c-4.549 6.863-15.788 7.804-27.211 9.963l-26.378 98.739 26.378 111.378c3.483 5.293 6.481 9.865 8.266 12.857 6.59 11.046 29.653 46.612 40.361 63.91s-4.53 11.12 21.416 37.066c22.59 22.59 48.924 34.562 68.406 37.282z" fill="#f9efcd"/><g fill="#e06e7e"><path d="m325.218 156.436c8.664-14.021 24.769-27.529 46.91-31.298 38.713-6.59 23.063-32.124 17.298-51.892-5.381-18.448-40.171-1.749-64.208 3.627z"/><path d="m186.769 103.482c-15.466 2.923-31.271 8.078-31.271 33.188 0 43.656-23.063 20.592-32.947 16.883-7.506-2.817-20.237-1.591-22.322-8.053-1.351-4.186-6.077-6.202-10.027-4.266-32.416 15.882-3.592 38.764-.599 43.682 3.295 5.413-15.65 21.768 10.333 25.887 25.983 4.118 25.909 34.595 35.337 34.897 9.427.302 23.52 14.525 26.815 25.876 2.402 8.276 15.309 27.78 24.681 42.024z"/><path d="m433.905 456.261c-12.115-6.414-16.215-17.76-13.366-28.171.788-2.878.251-5.89-1.332-8.419-2.083-3.326-1.886-7.616 4.71-17.218 1.941-2.825 2.695-6.325 1.964-9.673-3.184-14.592.787-32.53 5.227-42.553 1.549-3.496 1.144-7.54-1.04-10.679-4.658-6.696-12.52-17.997-17.614-25.32-2.426-3.487-6.659-5.363-10.829-4.557-4.814.931-10.354-.434-17.637-4.094-3.725-1.872-6.094-5.675-6.094-9.845v-18.911c0-4.262-4.617-6.938-8.308-4.808-28.878 16.66-23.049-10.432-44.368-19.777v212.478c2.894.404 5.64.608 8.197.608 19.769 0 42.008 28.829 56.835 37.066s23.063-9.884 21.676-15.65 35.982-23.064 21.979-30.477z"/></g><g><g><ellipse cx="264.173" cy="312.158" fill="#eda1ab" rx="23.403" ry="29.387"/><ellipse cx="264.173" cy="152.869" fill="#eda1ab" rx="23.403" ry="29.387"/><path d="m246.192 208.82c-14.643 0-16.019 10.608-16.019 23.693 0 13.086 1.376 23.693 16.019 23.693s26.513-10.608 26.513-23.693-11.87-23.693-26.513-23.693z" fill="#565e75"/></g></g><path d="m246.192 201.32c-12.057 0-17.634 6.008-20.189 11.048-2.763 5.448-3.329 11.994-3.329 20.146s.566 14.697 3.329 20.146c2.556 5.04 8.133 11.048 20.189 11.048 18.755 0 34.013-13.994 34.013-31.194s-15.258-31.194-34.013-31.194zm0 47.387c-5.907 0-8.518-.655-8.518-16.194s2.611-16.193 8.518-16.193c10.484 0 19.013 7.264 19.013 16.193s-8.529 16.194-19.013 16.194zm-21.958-83.426h12c4.142 0 7.5-3.358 7.5-7.5s-3.358-7.5-7.5-7.5h-12c-4.142 0-7.5 3.358-7.5 7.5s3.358 7.5 7.5 7.5zm220.279 294.228c-.195-2.388-1.376-6.847-7.098-9.876-8.201-4.342-11.805-11.655-9.641-19.563 1.259-4.6.677-9.506-2.239-14.428.005-.389.246-2.653 4.566-8.942 2.345-3.414 1.478-8.083-1.936-10.428-3.415-2.344-8.084-1.478-10.429 1.936-9.597 13.972-7.854 20.703-4.884 25.445.293.468.742 1.409.455 2.458-3.814 13.935 2.001 27.621 14.866 35.511-2.545 2.691-7.511 6.464-10.491 8.728-8.446 6.418-14.576 11.076-13.102 17.9-.004 1.607-1.758 6.232-4.735 8.075-.716.444-2.395 1.485-5.952-.492-15.033-8.352-35.886-37.623-61.173-38.023v-189.575c7.051 9.647 13.929 24.13 37.676 11.882v15.616c.001 7.036 3.919 13.375 10.227 16.545 9.035 4.54 15.951 6.005 22.428 4.756 1.174-.225 2.477.366 3.249 1.476l17.614 25.32c.699 1.005.826 2.261.339 3.359-2.354 5.313-4.328 11.944-5.561 18.672-.844 4.607 2.695 8.853 7.386 8.853 3.551 0 6.706-2.533 7.369-6.15 1.011-5.52 2.658-11.096 4.521-15.299 2.587-5.84 1.92-12.737-1.741-18l-17.614-25.321c-4.17-5.995-11.396-8.994-18.409-7.637-2.93.567-7.127-.558-12.846-3.431-1.21-.608-1.962-1.813-1.962-3.144v-18.911c0-10.046-10.868-16.316-19.556-11.305-8.263 4.767-11.513 4.46-12.526 4.109-5.027-1.748-9.217-17.708-25.798-24.569-7.512-3.108-10.737-12.283-11.991-17.475-3.384-14.012-.448-28.603 4.213-34.085 3.668-4.315 5.685-9.609 5.678-14.906-.016-13.597 16.001-40.615 47.973-46.058 14.195-2.416 23.395-7.483 28.125-15.491 8.526-14.432-.864-32.101-4.886-45.895-1.441-4.939-4.483-8.786-8.797-11.124-16.675-9.036-47.853 7.108-68.761 10.407-5.396.844-11.296-2.619-15.301-5.679-14.918-11.399-26.602-33.494-27.125-38.254-.883-10.593-19.892-22.209-29.411-25.208-9.773-3.079-14.87-.063-17.424 3.008-5.906 7.104-1.453 17.811 3.086 26.345 17.677 33.233-13.036 40.436-25.164 58.733-4.575 6.903-30.755 4.113-46.226 15.854-3.3 2.504-3.945 7.209-1.441 10.508 2.505 3.301 7.21 3.945 10.508 1.441 2.441-1.852 5.427-3.178 8.698-4.205v175.181c-4.834-7.804-8.902-14.959-9.979-18.67-3.751-12.922-19.099-29.809-32.517-31.196-4.668-6.245-10.39-30.888-35.664-34.894-5.69-.902-7.329-2.247-7.617-2.527-.129-1.088 1.079-4.068 1.736-5.691 1.673-4.131 3.756-9.271.781-14.16-2.59-4.255-15.013-14.682-13.444-22.803.843-4.362 6.176-7.874 10.631-10.095 4.001 11.469 20.009 9.937 26.718 12.457 5.631 2.112 19.496 14.422 31.564 8.085 6.628-3.48 10.31-11.415 11.256-24.258.305-4.131-2.797-7.726-6.929-8.031-4.123-.295-7.727 2.798-8.031 6.929-.772 10.486-3.245 12.066-3.27 12.079-1.782.939-9.307-3.479-11.78-4.929-2.656-1.557-5.164-3.027-7.539-3.919-6.118-2.296-15.117-2.532-18.059-4.019-3.066-8.118-12.441-11.829-20.226-8.014-11.017 5.397-17.431 12.419-19.063 20.869-2.603 13.474 7.817 25.036 13.415 31.248.274.304.571.634.853.95-1.962 5.283-6.053 12.961-1.705 20.655 2.957 5.232 8.962 8.499 18.361 9.989 5.7.903 12.16 1.927 21.108 20.299 3.293 6.762 7.025 14.425 15.163 14.686 5.416.173 17.214 11.381 19.852 20.47 3.738 12.882 26.868 45.165 33.709 56.634 6.635 11.124 29.789 46.834 40.425 64.015 3.176 5.13 3.356 7.115 3.566 9.414.687 7.542 2.778 12.862 18.924 29.008 12.622 12.622 27.41 23.057 42.767 30.176 13.785 6.391 27.685 9.911 39.139 9.911 15.846 0 38.086 27.73 53.192 36.122 7.514 4.175 15.89 4.239 22.808-1.019 6.594-5.012 10.165-13.528 10.146-19.853 1.618-1.543 4.886-4.026 7.194-5.779 9.5-7.216 18.472-14.033 17.758-22.783zm-111.795-376.773c15.479-4.144 40.606-13.512 47.964-9.526.529.287 1.128.712 1.543 2.136 3.504 12.017 10.759 26.639 6.372 34.065-2.886 4.885-11.233 7.228-17.728 8.334-14.196 2.416-27.462 8.838-38.151 18.323zm-15 372.83c-16.673-4.354-37.31-15.143-55.603-33.437-14.074-14.074-14.326-16.837-14.592-19.762-.887-9.731-2.915-11.734-25.485-47.127-27.466-43.07-17.278-27.917-27.77-43.885v-201.592c10.202-1.789 20.519-3.888 25.963-12.101 9.15-13.804 49.295-30.091 25.904-74.065-1.986-3.734-3.023-6.327-3.563-8.055 7.498 2.321 17.156 9.54 19.199 12.903 1.825 13.13 28.169 57.562 55.946 57.11v68.822c-4.682 8.15-7.314 16.648-7.305 24.23.003 1.735-.746 3.572-2.106 5.172-13.981 16.446-13.095 59.214 9.411 73.049v198.738zm-81.484-155.82h-12c-4.142 0-7.5 3.358-7.5 7.5s3.358 7.5 7.5 7.5h12c4.142 0 7.5-3.358 7.5-7.5s-3.358-7.5-7.5-7.5z"/></g></svg>